# xmcd
#
# Track frame offsets:
#	150
#	13988
#	28569
#	49474
#	72685
#	87961
#	102356
#	115213
#	133440
#	145111
#	166433
#	185136
#	202473
#	220537
#	237612
#	249387
#
# Disc length: 3536 seconds
#
# Revision: 1
# Processed by: cddbd v1.5.2PL0 Copyright (c) Steve Scherf et al.
# Submitted via: audiograbber 1.83.01
#
DISCID=040dce10
DTITLE=The Highwaymen - The Very Best Of
DYEAR=2016
DGENRE=Country
TTITLE0=Highwayman
TTITLE1=Silver Stallion
TTITLE2=Desperados Waiting for a Train
TTITLE3=City of New Orleans (Live) [1990 Version]
TTITLE4=Big River (Live)
TTITLE5=The Last Cowboy Song
TTITLE6=Live Forever
TTITLE7=Born and Raised in Black and White
TTITLE8=One Too Many Mornings
TTITLE9=The Road Goes on Forever
TTITLE10=American Remains
TTITLE11=Against the Wind
TTITLE12=Living Legend
TTITLE13=Deportee (Plane Wreck at Los Gatos)
TTITLE14=Welfare Line
TTITLE15=The King Is Gone (So Are You) [Live] [1990 Version]
EXTD=
EXTT0=
EXTT1=
EXTT2=
EXTT3=
EXTT4=
EXTT5=
EXTT6=
EXTT7=
EXTT8=
EXTT9=
EXTT10=
EXTT11=
EXTT12=
EXTT13=
EXTT14=
EXTT15=
PLAYORDER=
